<?xml version="1.0" encoding="UTF-8"?>
<svg width="160px" height="96px" viewBox="0 0 160 96" version="1.1" xmlns="http://www.w3.org/2000/svg" xmlns:xlink="http://www.w3.org/1999/xlink">
    <!-- Generator: Sketch 58 (84663) - https://sketch.com -->
    <title>circuit-gs-Barcelona-L-Eng</title>
    <desc>Created with Sketch.</desc>
    <defs>
        <linearGradient x1="50%" y1="23.3035083%" x2="50%" y2="112.667183%" id="linearGradient-1">
            <stop stop-color="#1B94E2" offset="0%"></stop>
            <stop stop-color="#40D8AB" offset="100%"></stop>
        </linearGradient>
    </defs>
    <g id="circuit-gs-Barcelona-L-Eng" stroke="none" stroke-width="1" fill="none" fill-rule="evenodd">
        <g id="spain-Circuit">
            <g id="Group-2" transform="translate(7.253333, 24.320000)">
                <path d="M116.658203,38.4737516 C116.376792,38.1094261 116.070489,38.1669594 114.024043,39.1726143 C113.587865,39.3869586 112.707193,39.7095267 111.363751,40.1492712 C111.063823,40.2474459 110.750229,40.297464 110.434642,40.297464 L78.1948128,40.297462 C77.9992754,40.297462 77.8046663,40.3243453 77.6164518,40.3773568 L65.5129148,43.7863772 L65.2815704,42.9650018 L77.3851074,39.5559814 C77.6486076,39.4817653 77.9210604,39.4441287 78.1948128,39.4441287 L110.434642,39.4441306 C110.660062,39.4441306 110.884057,39.4084034 111.098292,39.3382786 C112.403599,38.9110165 113.259489,38.5975255 113.647689,38.406758 C116.075922,37.2134869 116.675952,37.1007828 117.333534,37.9521146 C117.468854,38.1273042 117.969807,38.9483484 118.017657,39.0219289 L118.039177,39.0589656 C118.200698,39.3721519 118.396802,39.580351 118.611762,39.705117 C118.759509,39.7908718 118.904738,39.8291969 119.022539,39.8296431 C120.357782,39.8907594 122.006753,39.920481 123.920609,39.9238989 C125.629631,39.926951 127.409727,39.9097614 129.44232,39.87677 C129.371216,39.8779241 132.127933,39.8291969 132.38706,39.8291969 C133.625928,39.8291969 134.71663,39.6273313 135.931928,38.9181724 C137.792468,37.8324975 139.212256,35.8090648 139.982827,32.5761804 L140.812907,32.7740332 C139.990035,36.226342 138.431401,38.4476534 136.362004,39.6552017 C134.990735,40.4553741 133.763385,40.6825302 132.38706,40.6825302 C132.13674,40.6825302 129.401162,40.7308838 129.456169,40.7299909 C127.418888,40.7630584 125.634071,40.7802936 123.919085,40.7772309 C121.993782,40.7737925 120.333223,40.743862 119.003031,40.6825302 C118.397718,40.6825302 117.722574,40.293234 117.290274,39.4683934 C117.188903,39.3086609 116.755181,38.5993034 116.658203,38.4737516 Z" id="Path-12" fill="#E6E6E6" fill-rule="nonzero"></path>
                <path d="M29.9336557,46.1341788 C25.9116315,46.1341788 24.1670207,45.9589266 22.6209578,45.1698467 C20.659113,44.1685598 19.7214959,42.2937943 19.5103699,39.2107168 C19.5073792,36.4600384 19.2878345,35.8840415 18.3553178,35.2531364 C18.1883972,35.1402043 16.8198757,34.313501 16.2645904,33.9420404 C13.2597251,32.0686245 7.88709613,28.4528778 5.62510465,26.8274865 C3.98092001,25.6460304 2.35574634,23.9303097 1.27975041,21.7752555 C-0.309546739,18.5921379 -0.388233071,15.0051416 1.4844358,11.2002318 C3.35623321,7.19226502 6.3862205,4.56572823 10.2579609,3.07146604 C13.1905555,1.93965843 15.41172,1.66102678 19.4149276,1.51839104 C21.4019222,1.43292377 25.0026056,1.43059632 32.9744965,1.47047442 C33.4379724,1.47280137 33.4379724,1.47280137 33.9008,1.4751451 C38.4496095,1.49819518 40.1520937,1.50511171 42.0623447,1.50511171 C50.4509247,2.05046877 52.4484819,7.64505109 47.3977508,13.9416771 C46.992085,14.4474108 46.5973166,14.8947168 46.2027613,15.2937194 C44.5892095,16.9254581 42.9158439,17.8124582 40.6505179,18.2596484 C38.8276567,18.6194931 37.1133607,18.6994106 32.293409,18.7456704 C28.6405145,18.7807293 27.1702798,18.8031349 24.7392696,18.8781834 C21.1404631,18.8781834 20.2591976,19.3904415 19.3769289,21.688397 C18.7945948,23.2051435 19.6227637,24.3111359 22.238261,25.931546 C23.6108427,26.7291385 28.1790862,29.2732421 33.8718998,32.4258386 C37.1954095,34.2663494 38.7816534,34.836149 40.7971316,34.8591781 C42.0024517,34.8729502 43.7565812,34.8742307 46.7512912,34.8676665 C47.0482679,34.8670155 47.3329622,34.8663552 47.7844341,34.8652826 C49.8268275,34.8604304 50.527463,34.8590945 51.3949779,34.8590945 C52.6358945,34.8590945 53.3680474,34.6504945 53.7841151,34.1973715 C54.3326438,33.5999903 54.5741192,32.3646962 54.3319173,30.216429 C54.0415288,26.7075683 54.5318167,24.5291688 55.6915794,22.7449036 C55.8050896,22.570271 55.9196183,22.4059083 56.0627653,22.2088438 C56.0778777,22.1880392 56.3095265,21.872173 56.367492,21.790928 C56.3104795,21.8708372 58.5421836,18.6771465 59.7090667,17.0354079 C61.8282792,14.053796 63.9070388,11.2130608 65.9501777,8.53911038 C66.1719981,8.24880384 66.392414,7.96178934 66.6113763,7.67816337 C68.4752165,5.26389685 70.702992,4.18902982 73.259566,4.32257389 C75.2342564,4.42572294 77.2024578,5.18109006 79.8725253,6.65108386 C80.379934,6.93043546 80.8373888,7.19143038 81.6512982,7.6622589 C83.4304683,8.6914693 84.0659324,9.04680236 84.9413347,9.47784936 C85.4497962,9.76723967 99.4978713,18.5817041 104.176967,21.4940814 C104.426351,21.6492891 104.426351,21.6492891 104.675779,21.8044633 C115.16274,28.3279783 121.962141,32.4338477 123.732007,33.2469797 C125.239807,33.9397102 125.982256,33.849279 126.325162,33.377866 C126.66805,32.9064774 126.74117,31.9491758 126.483884,31.1343328 C126.349852,30.7560009 125.242044,27.5551595 124.806727,26.3389789 C124.720293,26.0975002 124.63605,25.863842 124.553838,25.6376606 C124.085103,24.3480662 123.689513,23.3209641 123.376645,22.5948927 C122.533867,20.6390594 122.133812,20.2022662 120.878408,19.6475813 C119.153444,18.8854269 116.539735,17.8435286 114.397524,17.0909178 C110.625326,15.765653 108.778869,12.1747266 110.946959,7.96988992 C112.792783,4.40250375 117.526406,3.85240084 121.836288,5.63504754 C122.867246,5.96611476 124.687411,6.7284333 127.239988,7.8697529 C127.384177,7.93422374 127.530553,7.99984096 127.679247,8.06665878 C128.350625,8.36835271 129.048554,8.68512867 129.839934,9.04668646 C130.139076,9.18335553 130.435072,9.31886534 130.813807,9.49245766 C131.041744,9.59694423 131.041744,9.59694423 131.259273,9.69667191 C131.471238,9.79383598 131.471238,9.79383598 131.671345,9.88550043 C134.366109,11.1195445 135.20213,12.2620221 135.20213,14.1356116 C135.20213,14.3384692 135.218501,14.9208681 135.25254,15.9540824 C135.26852,16.4391363 135.34548,18.7046531 135.364956,19.2901776 C135.376773,19.6454554 135.387696,19.9782189 135.398013,20.2978152 C135.483666,22.9513188 135.529196,24.7566474 135.529196,25.7880164 C135.529196,25.8669999 135.530131,25.9346258 135.531887,25.9921201 C135.639481,26.0108471 135.777092,26.0284367 135.947312,26.0441416 C136.646358,26.1086369 137.226255,26.1426698 137.846928,26.1583431 C138.279887,26.1692762 138.621296,26.1713294 139.511429,26.1713294 C141.451698,26.1713294 142.273889,26.9231666 142.273889,28.7268669 C142.273889,29.3240485 142.207387,30.0492611 142.059391,31.2276548 C142.057459,31.2430377 141.718249,33.8356818 141.610345,34.7369337 C141.471578,35.8959524 141.357234,36.991834 141.258519,38.1516488 C140.636631,43.64233 136.016356,46.1139211 128.022303,45.6464717 C67.2986299,45.971636 34.6087372,46.1341788 29.9336557,46.1341788 Z M29.9336557,43.5741788 C34.6023626,43.5741788 67.3140694,43.4115223 128.049794,43.0862877 C134.959153,43.4958674 138.277155,41.7273765 138.711214,37.8996043 C138.809031,36.744325 138.926399,35.6194547 139.068498,34.4326044 C139.178406,33.5146217 139.518989,30.9114783 139.519345,30.9086463 C139.65377,29.838311 139.713884,29.1915422 139.713884,28.7340423 C138.599194,28.7313294 138.244376,28.7291956 137.782303,28.7175273 C137.104682,28.7004159 136.467898,28.6630444 135.71212,28.593315 C133.705386,28.4081698 132.969196,27.6198761 132.969196,25.7880164 C132.969196,24.7947235 132.924039,23.0041671 132.839345,20.3804078 C132.829057,20.0617 132.818161,19.7297635 132.806371,19.3752824 C132.78694,18.7911284 132.709962,16.525062 132.693928,16.0383767 C132.658503,14.9631099 132.64213,14.3806135 132.64213,14.1356116 C132.64213,13.3298904 132.439445,13.0529082 130.605463,12.2130517 C130.404685,12.1210799 130.404685,12.1210799 130.192457,12.0237954 C129.974843,11.9240289 129.974843,11.9240289 129.747143,11.8196507 C129.369275,11.6464559 129.074152,11.5113455 128.776114,11.3751812 C127.9892,11.0156637 127.295898,10.700988 126.629946,10.4017324 C126.482682,10.3355568 126.337758,10.2705901 126.195045,10.2067801 C123.694754,9.08883857 121.900486,8.33869616 121.011663,8.05913242 C117.652431,6.6592918 114.311642,7.03775587 113.221468,9.14471174 C111.824757,11.8535228 112.841503,13.8308568 115.24607,14.6756393 C117.453262,15.4510797 120.128754,16.5176064 121.913023,17.305964 C123.794961,18.1374748 124.641981,19.0622808 125.727665,21.5818261 C126.064492,22.3634989 126.475504,23.4306413 126.959834,24.7631413 C127.043519,24.9933753 127.129175,25.2309532 127.216979,25.4762596 C127.67227,26.7482449 128.83242,30.101616 128.900211,30.2887104 C129.409869,31.8677986 129.275996,33.6731521 128.395401,34.8837579 C127.237232,36.4759622 125.174923,36.7271538 122.663261,35.5732172 C120.740161,34.6896847 114.000668,30.6199918 103.323581,23.9782067 C103.073864,23.8228528 103.073864,23.8228528 102.8242,23.6674705 C98.1425139,20.7534811 84.5658754,12.2351948 83.766411,11.7528036 C82.8432554,11.2968698 82.1735192,10.9218298 80.3694248,9.87820126 C79.57039,9.41597738 79.1249446,9.16183425 78.6378742,8.89367978 C73.7263879,6.18968295 71.1005145,6.05251899 68.6377681,9.24255991 C68.4214311,9.52278522 68.2036034,9.80642941 67.9843381,10.0933921 C65.9611862,12.7411845 63.8991122,15.5591179 61.7956977,18.5185031 C60.6372191,20.1484169 58.4037511,23.344632 58.4514572,23.2777667 C58.3819589,23.3751761 58.1404045,23.7045492 58.1339921,23.7133769 C58.0147069,23.8775916 57.9239038,24.0079053 57.8380003,24.1400656 C57.0008838,25.4279479 56.6378649,27.0408786 56.8794599,29.9671184 C57.4777747,35.2613744 55.4965081,37.4190945 51.3949779,37.4190945 C50.5303349,37.4190945 49.8305555,37.4204288 47.790516,37.4252754 C47.3388985,37.4263483 47.0540747,37.4270089 46.7569026,37.4276603 C43.749477,37.4342524 41.9893443,37.4329675 40.7678827,37.419011 C38.2330108,37.3900473 36.2941565,36.6935854 32.6316846,34.6653623 C26.9096861,31.4966036 22.3482823,28.9563091 20.9212161,28.1264717 C19.3663196,27.1635016 18.3635018,26.3767688 17.6307877,25.3982531 C16.6048627,24.0281639 16.33851,22.4599348 16.9870209,20.7708244 C18.2796039,17.404165 20.1478769,16.3181834 24.6994472,16.318803 C27.1147625,16.2436231 28.5979886,16.2210195 32.2688404,16.1857883 C40.4803891,16.1069774 42.1179656,15.7837091 44.382452,13.4936988 C44.7115921,13.1608488 45.0482339,12.7794052 45.400806,12.3398619 C49.2098802,7.59118005 48.1101038,4.47659498 42.0198589,4.06511057 C40.1206082,4.06500841 38.4079632,4.05801701 33.8878279,4.03511223 C33.4250452,4.03276873 33.4250452,4.03276873 32.9616906,4.03044239 C25.0683867,3.99095741 21.4494107,3.99329668 19.8368921,4.06388699 C15.7773318,4.20962437 13.7647641,4.46208882 11.1797041,5.45976867 C7.89657401,6.72686219 5.38034831,8.90804605 3.7926693,12.3070187 C2.27000676,15.4012715 2.33027,18.1484328 3.57013458,20.6316907 C4.43603402,22.365954 5.78478732,23.7898535 7.1189614,24.7485463 C9.34133697,26.345471 14.6848397,29.9414073 17.6367565,31.7807415 C18.1462871,32.122665 19.5490259,32.9698933 19.7898423,33.1328205 C21.5363084,34.3144126 22.0627914,35.6808657 22.0673493,39.0785136 C22.347025,43.0607768 23.3762222,43.5741788 29.9336557,43.5741788 Z" id="Path-11" fill="#EBEBEB" fill-rule="nonzero"></path>
                <path d="M29.9336557,44.8541788 C25.9116315,44.8541788 24.1670207,44.6789266 22.6209578,43.8898467 C20.659113,42.8885598 19.7214959,41.0137943 19.5103699,37.9307168 C19.5073792,35.1800384 19.2878345,34.6040415 18.3553178,33.9731364 C18.1883972,33.8602043 16.8198757,33.033501 16.2645904,32.6620404 C13.2597251,30.7886245 7.88709613,27.1728778 5.62510465,25.5474865 C3.98092001,24.3660304 2.35574634,22.6503097 1.27975041,20.4952555 C-0.309546739,17.3121379 -0.388233071,13.7251416 1.4844358,9.9202318 C3.35623321,5.91226502 6.3862205,3.28572823 10.2579609,1.79146604 C13.1905555,0.659658434 15.41172,0.381026777 19.4149276,0.238391042 C21.4019222,0.152923768 25.0026056,0.150596316 32.9744965,0.190474421 C33.4379724,0.192801372 33.4379724,0.192801372 33.9008,0.195145101 C38.4496095,0.218195179 40.1520937,0.225111711 42.0623447,0.225111711 C50.4509247,0.770468773 52.4484819,6.36505109 47.3977508,12.6616771 C46.992085,13.1674108 46.5973166,13.6147168 46.2027613,14.0137194 C44.5892095,15.6454581 42.9158439,16.5324582 40.6505179,16.9796484 C38.8276567,17.3394931 37.1133607,17.4194106 32.293409,17.4656704 C28.6405145,17.5007293 27.1702798,17.5231349 24.7392696,17.5981834 C21.1404631,17.5981834 20.2591976,18.1104415 19.3769289,20.408397 C18.7945948,21.9251435 19.6227637,23.0311359 22.238261,24.651546 C23.6108427,25.4491385 28.1790862,27.9932421 33.8718998,31.1458386 C37.1954095,32.9863494 38.7816534,33.556149 40.7971316,33.5791781 C42.0024517,33.5929502 43.7565812,33.5942307 46.7512912,33.5876665 C47.0482679,33.5870155 47.3329622,33.5863552 47.7844341,33.5852826 C49.8268275,33.5804304 50.527463,33.5790945 51.3949779,33.5790945 C52.6358945,33.5790945 53.3680474,33.3704945 53.7841151,32.9173715 C54.3326438,32.3199903 54.5741192,31.0846962 54.3319173,28.936429 C54.0415288,25.4275683 54.5318167,23.2491688 55.6915794,21.4649036 C55.8050896,21.290271 55.9196183,21.1259083 56.0627653,20.9288438 C56.0778777,20.9080392 56.3095265,20.592173 56.367492,20.510928 C56.3104795,20.5908372 58.5421836,17.3971465 59.7090667,15.7554079 C61.8282792,12.773796 63.9070388,9.93306077 65.9501777,7.25911038 C66.1719981,6.96880384 66.392414,6.68178934 66.6113763,6.39816337 C68.4752165,3.98389685 70.702992,2.90902982 73.259566,3.04257389 C75.2342564,3.14572294 77.2024578,3.90109006 79.8725253,5.37108386 C80.379934,5.65043546 80.8373888,5.91143038 81.6512982,6.3822589 C83.4304683,7.4114693 84.0659324,7.76680236 84.9413347,8.19784936 C85.4497962,8.48723967 99.4978713,17.3017041 104.176967,20.2140814 C104.426351,20.3692891 104.426351,20.3692891 104.675779,20.5244633 C115.16274,27.0479783 121.962141,31.1538477 123.732007,31.9669797 C125.239807,32.6597102 125.982256,32.569279 126.325162,32.097866 C126.66805,31.6264774 126.74117,30.6691758 126.483884,29.8543328 C126.349852,29.4760009 125.242044,26.2751595 124.806727,25.0589789 C124.720293,24.8175002 124.63605,24.583842 124.553838,24.3576606 C124.085103,23.0680662 123.689513,22.0409641 123.376645,21.3148927 C122.533867,19.3590594 122.133812,18.9222662 120.878408,18.3675813 C119.153444,17.6054269 116.539735,16.5635286 114.397524,15.8109178 C110.625326,14.485653 108.778869,10.8947266 110.946959,6.68988992 C112.792783,3.12250375 117.526406,2.57240084 121.836288,4.35504754 C122.867246,4.68611476 124.687411,5.4484333 127.239988,6.5897529 C127.384177,6.65422374 127.530553,6.71984096 127.679247,6.78665878 C128.350625,7.08835271 129.048554,7.40512867 129.839934,7.76668646 C130.139076,7.90335553 130.435072,8.03886534 130.813807,8.21245766 C131.041744,8.31694423 131.041744,8.31694423 131.259273,8.41667191 C131.471238,8.51383598 131.471238,8.51383598 131.671345,8.60550043 C134.366109,9.8395445 135.20213,10.9820221 135.20213,12.8556116 C135.20213,13.0584692 135.218501,13.6408681 135.25254,14.6740824 C135.26852,15.1591363 135.34548,17.4246531 135.364956,18.0101776 C135.376773,18.3654554 135.387696,18.6982189 135.398013,19.0178152 C135.483666,21.6713188 135.529196,23.4766474 135.529196,24.5080164 C135.529196,24.5869999 135.530131,24.6546258 135.531887,24.7121201 C135.639481,24.7308471 135.777092,24.7484367 135.947312,24.7641416 C136.646358,24.8286369 137.226255,24.8626698 137.846928,24.8783431 C138.279887,24.8892762 138.621296,24.8913294 139.511429,24.8913294 C141.451698,24.8913294 142.273889,25.6431666 142.273889,27.4468669 C142.273889,28.0440485 142.207387,28.7692611 142.059391,29.9476548 C142.057459,29.9630377 141.718249,32.5556818 141.610345,33.4569337 C141.471578,34.6159524 141.357234,35.711834 141.258519,36.8716488 C140.636631,42.36233 136.016356,44.8339211 128.022303,44.3664717 C67.2986299,44.691636 34.6087372,44.8541788 29.9336557,44.8541788 Z M29.9336557,42.2941788 C34.6023626,42.2941788 67.3140694,42.1315223 128.049794,41.8062877 C134.959153,42.2158674 138.277155,40.4473765 138.711214,36.6196043 C138.809031,35.464325 138.926399,34.3394547 139.068498,33.1526044 C139.178406,32.2346217 139.518989,29.6314783 139.519345,29.6286463 C139.65377,28.558311 139.713884,27.9115422 139.713884,27.4540423 C138.599194,27.4513294 138.244376,27.4491956 137.782303,27.4375273 C137.104682,27.4204159 136.467898,27.3830444 135.71212,27.313315 C133.705386,27.1281698 132.969196,26.3398761 132.969196,24.5080164 C132.969196,23.5147235 132.924039,21.7241671 132.839345,19.1004078 C132.829057,18.7817 132.818161,18.4497635 132.806371,18.0952824 C132.78694,17.5111284 132.709962,15.245062 132.693928,14.7583767 C132.658503,13.6831099 132.64213,13.1006135 132.64213,12.8556116 C132.64213,12.0498904 132.439445,11.7729082 130.605463,10.9330517 C130.404685,10.8410799 130.404685,10.8410799 130.192457,10.7437954 C129.974843,10.6440289 129.974843,10.6440289 129.747143,10.5396507 C129.369275,10.3664559 129.074152,10.2313455 128.776114,10.0951812 C127.9892,9.73566372 127.295898,9.420988 126.629946,9.12173239 C126.482682,9.05555683 126.337758,8.99059015 126.195045,8.92678009 C123.694754,7.80883857 121.900486,7.05869616 121.011663,6.77913242 C117.652431,5.3792918 114.311642,5.75775587 113.221468,7.86471174 C111.824757,10.5735228 112.841503,12.5508568 115.24607,13.3956393 C117.453262,14.1710797 120.128754,15.2376064 121.913023,16.025964 C123.794961,16.8574748 124.641981,17.7822808 125.727665,20.3018261 C126.064492,21.0834989 126.475504,22.1506413 126.959834,23.4831413 C127.043519,23.7133753 127.129175,23.9509532 127.216979,24.1962596 C127.67227,25.4682449 128.83242,28.821616 128.900211,29.0087104 C129.409869,30.5877986 129.275996,32.3931521 128.395401,33.6037579 C127.237232,35.1959622 125.174923,35.4471538 122.663261,34.2932172 C120.740161,33.4096847 114.000668,29.3399918 103.323581,22.6982067 C103.073864,22.5428528 103.073864,22.5428528 102.8242,22.3874705 C98.1425139,19.4734811 84.5658754,10.9551948 83.766411,10.4728036 C82.8432554,10.0168698 82.1735192,9.6418298 80.3694248,8.59820126 C79.57039,8.13597738 79.1249446,7.88183425 78.6378742,7.61367978 C73.7263879,4.90968295 71.1005145,4.77251899 68.6377681,7.96255991 C68.4214311,8.24278522 68.2036034,8.52642941 67.9843381,8.81339211 C65.9611862,11.4611845 63.8991122,14.2791179 61.7956977,17.2385031 C60.6372191,18.8684169 58.4037511,22.064632 58.4514572,21.9977667 C58.3819589,22.0951761 58.1404045,22.4245492 58.1339921,22.4333769 C58.0147069,22.5975916 57.9239038,22.7279053 57.8380003,22.8600656 C57.0008838,24.1479479 56.6378649,25.7608786 56.8794599,28.6871184 C57.4777747,33.9813744 55.4965081,36.1390945 51.3949779,36.1390945 C50.5303349,36.1390945 49.8305555,36.1404288 47.790516,36.1452754 C47.3388985,36.1463483 47.0540747,36.1470089 46.7569026,36.1476603 C43.749477,36.1542524 41.9893443,36.1529675 40.7678827,36.139011 C38.2330108,36.1100473 36.2941565,35.4135854 32.6316846,33.3853623 C26.9096861,30.2166036 22.3482823,27.6763091 20.9212161,26.8464717 C19.3663196,25.8835016 18.3635018,25.0967688 17.6307877,24.1182531 C16.6048627,22.7481639 16.33851,21.1799348 16.9870209,19.4908244 C18.2796039,16.124165 20.1478769,15.0381834 24.6994472,15.038803 C27.1147625,14.9636231 28.5979886,14.9410195 32.2688404,14.9057883 C40.4803891,14.8269774 42.1179656,14.5037091 44.382452,12.2136988 C44.7115921,11.8808488 45.0482339,11.4994052 45.400806,11.0598619 C49.2098802,6.31118005 48.1101038,3.19659498 42.0198589,2.78511057 C40.1206082,2.78500841 38.4079632,2.77801701 33.8878279,2.75511223 C33.4250452,2.75276873 33.4250452,2.75276873 32.9616906,2.75044239 C25.0683867,2.71095741 21.4494107,2.71329668 19.8368921,2.78388699 C15.7773318,2.92962437 13.7647641,3.18208882 11.1797041,4.17976867 C7.89657401,5.44686219 5.38034831,7.62804605 3.7926693,11.0270187 C2.27000676,14.1212715 2.33027,16.8684328 3.57013458,19.3516907 C4.43603402,21.085954 5.78478732,22.5098535 7.1189614,23.4685463 C9.34133697,25.065471 14.6848397,28.6614073 17.6367565,30.5007415 C18.1462871,30.842665 19.5490259,31.6898933 19.7898423,31.8528205 C21.5363084,33.0344126 22.0627914,34.4008657 22.0673493,37.7985136 C22.347025,41.7807768 23.3762222,42.2941788 29.9336557,42.2941788 Z" id="Path-11" fill="#F2F2F2" fill-rule="nonzero"></path>
                <path d="M29.9336557,44.2141788 C26.0219561,44.2141788 24.3315741,44.0443741 22.9118985,43.3197997 C21.181005,42.4363858 20.3460931,40.7669795 20.1488746,37.8869926 C20.1473792,34.9882382 19.8518651,34.2129279 18.7139489,33.4430574 C18.5270741,33.3166251 17.1270799,32.4710544 16.6213879,32.1302895 C13.6324369,30.2678793 8.25411364,26.6485104 5.99856884,25.0277514 C4.43188684,23.9019862 2.87581826,22.2592207 1.85234645,20.2093643 C0.350407446,17.2012116 0.276326885,13.824174 2.06431465,10.1910464 C3.86226199,6.34121028 6.76380888,3.82601172 10.4883967,2.3885417 C13.3341076,1.29026603 15.503123,1.01817618 19.4377166,0.877985181 C21.4137944,0.793016996 25.0190509,0.790686588 32.971295,0.830466414 C33.4347406,0.832793212 33.4347406,0.832793212 33.897557,0.835136885 C38.4476177,0.858193303 40.1505638,0.865111711 42.1040715,0.866473417 C49.8644826,1.3735169 51.6409628,6.34892625 46.8985146,12.2612233 C46.5061223,12.7504094 46.1258855,13.1812498 45.7476839,13.5637142 C44.2251,15.1034599 42.6673923,15.9291531 40.5265697,16.3517656 C38.7586157,16.7007713 37.0617421,16.7798766 32.2872668,16.8256999 C28.629883,16.8608019 27.1564004,16.883257 24.7392696,16.9581834 C20.8923166,16.9581834 19.7642992,17.6138724 18.7794519,20.1790039 C18.0461757,22.088894 19.0496408,23.4289889 21.9167105,25.2049042 C23.2952026,26.0059312 27.8617362,28.5490825 33.561846,31.7057195 C36.9700963,33.5931584 38.6444927,34.1946236 40.7898194,34.2191363 C41.9991749,34.2329545 43.7548052,34.2342361 46.7526941,34.2276649 C47.0497196,34.2270139 47.3344462,34.2263535 47.7859546,34.2252808 C49.8277595,34.22043 50.528181,34.2190945 51.3949779,34.2190945 C54.3627982,34.2190945 55.4398568,33.046112 54.9697368,28.8836439 C54.6906129,25.5108959 55.1490835,23.4738636 56.2281846,21.8136941 C56.3347932,21.6496795 56.4433904,21.4938291 56.580572,21.3049771 C56.5935094,21.2871667 56.8276346,20.9679238 56.8884833,20.8826377 C56.8337974,20.9592859 59.0659425,17.7649641 60.2307245,16.1261817 C62.3459874,13.1501265 64.4205756,10.3150917 66.4587178,7.64768081 C66.6798994,7.35821023 66.8996683,7.07203831 67.1179743,6.78926251 C68.856102,4.53783358 70.8840878,3.559362 73.2261808,3.68170253 C75.0795123,3.77851234 76.9721629,4.50488418 79.5638626,5.93173284 C80.0661867,6.20828515 80.5206391,6.46756713 81.3308298,6.93624449 C83.123372,7.97319029 83.7654939,8.33224626 84.6949881,8.79140754 C85.1182601,9.03486168 99.1400709,17.8328465 103.838775,20.7574287 C104.08823,20.91268 104.08823,20.91268 104.337729,21.0678991 C114.872222,27.6209816 121.656646,31.7178069 123.464821,32.5485391 C125.223586,33.3565711 126.296,33.2259498 126.842722,32.4743389 C127.32183,31.8156809 127.409099,30.6388012 127.095056,29.6627845 C127.021289,29.4591985 125.859489,26.101059 125.40929,24.8432991 C125.322513,24.6008634 125.237917,24.3662253 125.155337,24.1390308 C124.682703,22.83871 124.283258,21.8015978 123.9644,21.061626 C123.060895,18.9648647 122.549099,18.4060684 121.137062,17.782177 C119.397271,17.0134718 116.768117,15.9654164 114.60966,15.2070981 C111.17937,14.001954 109.540341,10.8144257 111.515378,6.98399901 C113.174555,3.77733978 117.567877,3.27296644 121.615868,4.95649084 C122.609649,5.27259754 124.428013,6.03351187 126.978752,7.1740097 C127.122572,7.23831534 127.268585,7.30376993 127.416921,7.37042719 C128.086943,7.67151153 128.783716,7.98776244 129.573979,8.34881014 C129.872845,8.48535304 130.168623,8.62076298 130.547141,8.79425593 C130.775018,8.8987154 130.775018,8.8987154 130.992569,8.99845279 C131.2046,9.09564695 131.2046,9.09564695 131.404875,9.18738826 C133.884443,10.3228854 134.56213,11.2489892 134.56213,12.8556116 C134.56213,13.0690053 134.578501,13.6514285 134.612887,14.6951559 C134.628881,15.1806178 134.705845,17.4462719 134.725309,18.0314538 C134.73712,18.3865324 134.748036,18.7190892 134.758346,19.0384633 C134.84376,21.6845309 134.889196,23.4861664 134.889196,24.5080164 C134.889196,25.3378463 134.859957,25.3065383 135.888514,25.4014349 C136.601743,25.4672388 137.195862,25.5021063 137.830772,25.5181391 C138.271009,25.5292561 138.615771,25.5313294 139.511429,25.5313294 C141.110381,25.5313294 141.633889,26.0100415 141.633889,27.4468669 C141.633889,28.0092305 141.569159,28.7151216 141.424379,29.8679027 C141.422841,29.8801479 141.083288,32.4754168 140.974883,33.3808514 C140.835283,34.546828 140.720183,35.6499568 140.622585,36.7996214 C140.046467,41.8861958 135.7477,44.181737 128.039379,43.726371 C67.3061507,44.0515893 34.6074055,44.2141788 29.9336557,44.2141788 Z M23.4937799,42.1797059 C24.6606808,42.775269 26.2426053,42.9341788 29.9336557,42.9341788 C34.6042206,42.9341788 67.3139061,42.7715323 128.053221,42.4462786 C135.219418,42.8725358 138.866753,40.9285112 139.348933,36.6735991 C139.446081,35.5262023 139.562694,34.4085791 139.70396,33.2286867 C139.813367,32.3148867 140.153607,29.7143682 140.154356,29.7083985 C140.292702,28.6068426 140.353889,27.9395945 140.353889,27.4468669 C140.353889,26.7437911 140.427747,26.8113294 139.511429,26.8113294 C138.604719,26.8113294 138.253253,26.8092157 137.798459,26.7977312 C137.135075,26.7809794 136.512513,26.7444426 135.770918,26.6760216 C134.090243,26.5209593 133.609196,26.0058662 133.609196,24.5080164 C133.609196,23.5052045 133.563946,21.7109551 133.479012,19.0797597 C133.468717,18.7608298 133.457814,18.4286865 133.446017,18.0740062 C133.426575,17.4895096 133.349602,15.2235806 133.333581,14.7373031 C133.298503,13.6725494 133.28213,13.0900774 133.28213,12.8556116 C133.28213,11.7829233 132.921111,11.2895673 130.871934,10.3511639 C130.671323,10.2592689 130.671323,10.2592689 130.459161,10.1620146 C130.241568,10.0622578 130.241568,10.0622578 130.013809,9.95785247 C129.635724,9.78455825 129.340383,9.64934804 129.042069,9.51305751 C128.254039,9.15302996 127.55958,8.83782918 126.892271,8.53796399 C126.744649,8.47162786 126.599363,8.40649855 126.456281,8.34252329 C123.931089,7.21344799 122.125368,6.45851769 121.20369,6.16861959 C117.630739,4.67644291 113.933839,5.0952494 112.652632,7.57140992 C111.063285,10.6538237 112.287459,13.0345558 115.033933,13.9994589 C117.22488,14.7691919 119.884926,15.8295615 121.65437,16.6113683 C123.379674,17.3736727 124.114952,18.1764754 125.13991,20.5550927 C125.470747,21.3228652 125.877904,22.3799975 126.358335,23.7017711 C126.441651,23.9309919 126.526954,24.1675899 126.614416,24.4119394 C127.06801,25.679183 128.22871,29.0341435 128.305935,29.2484854 C128.742946,30.6047994 128.624607,32.2006617 127.877841,33.2272849 C126.923488,34.5392914 125.191144,34.7502929 122.930447,33.7116578 C121.045656,32.8457254 114.291186,28.7669884 103.66163,22.1547708 C103.411986,21.9994618 103.411986,21.9994618 103.162392,21.8441232 C98.42447,18.8951314 84.4551879,10.1301057 84.0931751,9.92035489 C83.164617,9.46313405 82.5091792,9.09663227 80.6898931,8.04421567 C79.8871397,7.57984063 79.438692,7.32398455 78.946537,7.0530308 C73.792585,4.21554555 70.8410002,4.06136787 68.1311701,7.57146078 C67.9141768,7.85253625 67.6957021,8.13702302 67.475798,8.42482168 C65.4476493,11.0791536 63.3814039,13.9027874 61.2740399,16.8677293 C60.1134602,18.5005993 57.8804332,21.6961833 57.9304659,21.626057 C57.8638508,21.7194253 57.6247728,22.0454217 57.6161854,22.0572436 C57.4909348,22.2296708 57.3942003,22.3684967 57.3013951,22.5112751 C56.383617,23.9232531 55.9887809,25.6775511 56.2435081,28.7589886 C56.7984688,33.6696203 55.1186048,35.4990945 51.3949779,35.4990945 C50.5296169,35.4990945 49.8296235,35.5004292 47.7889955,35.5052772 C47.3374144,35.5063501 47.052623,35.5070106 46.7554997,35.5076619 C43.7512531,35.514247 41.9926212,35.5129632 40.7751949,35.4990528 C38.3701715,35.4715727 36.5194697,34.8067764 32.9417384,32.8254813 C27.2270361,29.6607633 22.6639224,27.1195164 21.258188,26.302367 C19.7666549,25.3786388 18.8151345,24.6321499 18.1430822,23.7346461 C17.2449139,22.5351718 17.0175958,21.1967699 17.5844979,19.7202176 C18.7745023,16.6207341 20.3960234,15.6781834 24.7193584,15.6784932 C27.1286418,15.6035011 28.6086201,15.580947 32.2749825,15.5457588 C40.6557515,15.4653239 42.4094731,15.1191277 44.8375293,12.6637039 C45.1830233,12.3143158 45.5341967,11.9164066 45.9000422,11.4603157 C50.0259246,6.31667657 48.6915984,2.57961316 42.0623447,2.14511171 C40.1475038,2.14511171 38.4436341,2.13818955 33.8910709,2.11512045 C33.428277,2.11277689 33.428277,2.11277689 32.9648921,2.1104504 C25.0519415,2.07086713 21.4375386,2.07320345 19.808902,2.14449935 C15.6859288,2.29247497 13.6212119,2.55148122 10.9492683,3.58269301 C7.51898563,4.9065787 4.87431953,7.1991008 3.2184314,10.7444398 C1.6054468,14.022239 1.67031582,16.9793591 2.99753854,19.6375819 C3.9159621,21.4770429 5.33382049,22.9738978 6.74549721,23.9882814 C8.9789292,25.5931508 14.3340388,29.1968979 17.3171475,31.056132 C17.8065513,31.3854615 19.2083753,32.2321373 19.4312111,32.3828995 C20.9763837,33.428304 21.4253265,34.5992679 21.4273722,37.8210772 C21.5989511,40.2806594 22.228476,41.5339197 23.4937799,42.1797059 Z" id="Path-11" fill="url(#linearGradient-1)" fill-rule="nonzero"></path>
                <path d="M100.996381,43.8588627 L100.989927,42.578879 L123.384767,42.4712526 L123.391263,43.7512361 C121.090093,43.7635334 118.705979,43.7753112 115.880576,43.7885273 C114.205766,43.7963613 108.320144,43.8232011 108.619806,43.8218241 C105.445739,43.8364093 103.168894,43.8473955 100.996381,43.8588627 Z M100.989625,42.5788805 C103.162489,42.5674115 105.43959,42.5564241 108.613924,42.5418376 C108.31433,42.5432143 114.199867,42.5163749 115.874589,42.5085413 C118.699729,42.4953264 121.083572,42.48355 123.384423,42.4712543 L123.390919,43.7512378 L100.996079,43.8588642 L100.989625,42.5788805 Z" id="Path" fill="#FF9219" fill-rule="nonzero"></path>
                <path d="M123.464821,32.5485391 L122.930447,33.7116578 C120.896622,32.7772544 113.263311,28.1453319 101.212224,20.6290102 L101.889611,19.5429407 C113.83585,26.9938687 121.509056,31.6499993 123.464821,32.5485391 Z" id="Path" fill="#FF9219" fill-rule="nonzero"></path>
                <path d="M26.0663909,42.8103086 L25.9408447,44.0841367 C22.0493824,43.7006011 20.4365863,42.088454 20.1488746,37.8869926 C20.1473792,34.9882382 19.8518651,34.2129279 18.7139489,33.4430574 C18.5270741,33.3166251 17.1270799,32.4710544 16.6213879,32.1302895 C13.6324369,30.2678793 8.25411364,26.6485104 5.99856884,25.0277514 C4.43188684,23.9019862 2.87581826,22.2592207 1.85234645,20.2093643 C0.350407446,17.2012116 0.276326885,13.824174 2.06431465,10.1910464 C3.86226199,6.34121028 6.76380888,3.82601172 10.4883967,2.3885417 C13.3341076,1.29026603 15.503123,1.01817618 19.4377166,0.877985181 C19.563768,0.873493925 19.6633339,0.869645908 19.7529218,0.865724072 C21.4137944,0.793016996 25.0190509,0.790686588 32.971295,0.830466414 C33.4347406,0.832793212 33.4347406,0.832793212 33.897557,0.835136885 C35.403009,0.842765427 35.7963638,0.844734114 36.4877413,0.848021458 L36.4816553,2.12800699 C35.7900893,2.12471875 35.3966765,2.12274977 33.8910709,2.11512045 C33.428277,2.11277689 33.428277,2.11277689 32.9648921,2.1104504 C25.0519415,2.07086713 21.4375386,2.07320345 19.808902,2.14449935 C19.715306,2.14859665 19.6125218,2.15256905 19.4832945,2.15717346 C15.6859288,2.29247497 13.6212119,2.55148122 10.9492683,3.58269301 C7.51898563,4.9065787 4.87431953,7.1991008 3.2184314,10.7444398 C1.6054468,14.022239 1.67031582,16.9793591 2.99753854,19.6375819 C3.9159621,21.4770429 5.33382049,22.9738978 6.74549721,23.9882814 C8.9789292,25.5931508 14.3340388,29.1968979 17.3171475,31.056132 C17.8065513,31.3854615 19.2083753,32.2321373 19.4312111,32.3828995 C20.9763862,33.4283057 21.4253279,34.5992717 21.4273722,37.8210928 C21.6748426,41.373639 22.7955316,42.4879385 26.0663909,42.8103086 Z" id="Path" fill="#979797" fill-rule="nonzero"></path>
                <path d="M25.8312853,44.0729851 L25.9650399,42.7999926 C26.934967,42.9019039 28.0431578,42.9341788 29.9336557,42.9341788 C33.8553503,42.9341788 57.5485564,42.8194933 101.005533,42.5901524 L101.012288,43.8701345 C57.549266,44.0995074 33.8589687,44.2141788 29.9336557,44.2141788 C28.000501,44.2141788 26.8585477,44.1809206 25.8312853,44.0729851 Z" id="Path-11" fill="#FFB819" fill-rule="nonzero"></path>
                <path d="M126.978752,7.1740097 C127.122572,7.23831534 127.268585,7.30376993 127.416921,7.37042719 C128.086943,7.67151153 128.783716,7.98776244 129.573979,8.34881014 C129.872845,8.48535304 130.168623,8.62076298 130.547141,8.79425593 C130.775018,8.8987154 130.775018,8.8987154 130.992569,8.99845279 C131.2046,9.09564695 131.2046,9.09564695 131.404875,9.18738826 C133.884443,10.3228854 134.56213,11.2489892 134.56213,12.8556116 C134.56213,13.0690053 134.578501,13.6514285 134.612887,14.6951559 C134.628881,15.1806178 134.705845,17.4462719 134.725309,18.0314538 C134.73712,18.3865324 134.748036,18.7190892 134.758346,19.0384633 C134.84376,21.6845309 134.889196,23.4861664 134.889196,24.5080164 C134.889196,25.3378463 134.859957,25.3065383 135.888514,25.4014349 C136.601743,25.4672388 137.195862,25.5021063 137.830772,25.5181391 C138.271009,25.5292561 138.615771,25.5313294 139.511429,25.5313294 C141.110381,25.5313294 141.633889,26.0100415 141.633889,27.4468669 C141.633889,28.0092305 141.569159,28.7151216 141.424379,29.8679027 C141.422841,29.8801479 141.083288,32.4754168 140.974883,33.3808514 C140.835283,34.546828 140.720183,35.6499568 140.622585,36.7996214 C140.045948,41.8907804 135.739948,44.1858727 128.060074,43.7262602 C125.906932,43.7377841 124.302105,43.7463689 123.245594,43.7520145 L123.238755,42.4720328 C124.295261,42.4663872 125.900084,42.4578025 128.09477,42.4474057 C135.219418,42.8725358 138.866753,40.9285112 139.348933,36.6735991 C139.446081,35.5262023 139.562694,34.4085791 139.70396,33.2286867 C139.813367,32.3148867 140.153607,29.7143682 140.154356,29.7083985 C140.292702,28.6068426 140.353889,27.9395945 140.353889,27.4468669 C140.353889,26.7437911 140.427747,26.8113294 139.511429,26.8113294 C138.604719,26.8113294 138.253253,26.8092157 137.798459,26.7977312 C137.135075,26.7809794 136.512513,26.7444426 135.770918,26.6760216 C134.090243,26.5209593 133.609196,26.0058662 133.609196,24.5080164 C133.609196,23.5052045 133.563946,21.7109551 133.479012,19.0797597 C133.468717,18.7608298 133.457814,18.4286865 133.446017,18.0740062 C133.426575,17.4895096 133.349602,15.2235806 133.333581,14.7373031 C133.298503,13.6725494 133.28213,13.0900774 133.28213,12.8556116 C133.28213,11.7829233 132.921111,11.2895673 130.871934,10.3511639 C130.671323,10.2592689 130.671323,10.2592689 130.459161,10.1620146 C130.241568,10.0622578 130.241568,10.0622578 130.013809,9.95785247 C129.635724,9.78455825 129.340383,9.64934804 129.042069,9.51305751 C128.254039,9.15302996 127.55958,8.83782918 126.892271,8.53796399 C126.744649,8.47162786 126.599363,8.40649855 126.456281,8.34252329 C123.931089,7.21344799 122.125368,6.45851769 121.20369,6.16861959 C117.630739,4.67644291 113.933839,5.0952494 112.652632,7.57140992 C111.063285,10.6538237 112.287459,13.0345558 115.033933,13.9994589 C117.22488,14.7691919 119.884926,15.8295615 121.65437,16.6113683 C123.379674,17.3736727 124.114952,18.1764754 125.13991,20.5550927 C125.470747,21.3228652 125.877904,22.3799975 126.358335,23.7017711 C126.441651,23.9309919 126.526954,24.1675899 126.614416,24.4119394 C127.06801,25.679183 128.22871,29.0341435 128.305935,29.2484854 C128.742946,30.6047994 128.624607,32.2006617 127.877841,33.2272849 C126.923488,34.5392914 125.191144,34.7502929 122.930447,33.7116578 L123.464821,32.5485391 C125.223586,33.3565711 126.296,33.2259498 126.842722,32.4743389 C127.32183,31.8156809 127.409099,30.6388012 127.095056,29.6627845 C127.021289,29.4591985 125.859489,26.101059 125.40929,24.8432991 C125.322513,24.6008634 125.237917,24.3662253 125.155337,24.1390308 C124.682703,22.83871 124.283258,21.8015978 123.9644,21.061626 C123.060895,18.9648647 122.549099,18.4060684 121.137062,17.782177 C119.397271,17.0134718 116.768117,15.9654164 114.60966,15.2070981 C111.17937,14.001954 109.540341,10.8144257 111.515378,6.98399901 C113.174555,3.77733978 117.567877,3.27296644 121.615868,4.95649084 C122.609649,5.27259754 124.428013,6.03351187 126.978752,7.1740097 Z" id="Path" fill-opacity="0.37" fill="#000000" fill-rule="nonzero"></path>
                <path d="M101.765747,19.4656811 L101.088302,20.5517143 C97.5127814,18.3213781 84.4816211,10.1453093 84.0931751,9.92035489 C83.164617,9.46313405 82.5091792,9.09663227 80.6898931,8.04421567 C79.8871397,7.57984063 79.438692,7.32398455 78.946537,7.0530308 C78.4947266,6.80428863 78.0814705,6.58596646 77.686799,6.38881967 L78.2587937,5.24373364 C78.6699165,5.44909819 79.0979699,5.67523773 79.5638626,5.93173284 C80.0661867,6.20828515 80.5206391,6.46756713 81.3308298,6.93624449 C83.123372,7.97319029 83.7654939,8.33224626 84.6949881,8.79140754 C85.1446665,9.05004989 98.2427622,17.2681156 101.765747,19.4656811 Z" id="Path" fill="#FFA019" fill-rule="nonzero"></path>
                <path d="M77.801156,5.0205026 L77.2514655,6.17646121 C73.2287101,4.26352894 70.5276348,4.46727588 68.1311701,7.57146078 C67.9141768,7.85253625 67.6957021,8.13702302 67.475798,8.42482168 C65.4476493,11.0791536 63.3814039,13.9027874 61.2740399,16.8677293 C60.1134602,18.5005993 57.8804332,21.6961833 57.9304659,21.626057 C57.8638508,21.7194253 57.6247728,22.0454217 57.6161854,22.0572436 C57.4909348,22.2296708 57.3942003,22.3684967 57.3013951,22.5112751 C56.383617,23.9232531 55.9887809,25.6775511 56.2435081,28.7589886 C56.7984688,33.6696203 55.1186048,35.4990945 51.3949779,35.4990945 C50.5296169,35.4990945 49.8296235,35.5004292 47.7889955,35.5052772 C47.3374144,35.5063501 47.052623,35.5070106 46.7554997,35.5076619 C43.7512531,35.514247 41.9926212,35.5129632 40.7751949,35.4990528 C38.3701715,35.4715727 36.5194697,34.8067764 32.9417384,32.8254813 C27.2270361,29.6607633 22.6639224,27.1195164 21.258188,26.302367 C19.7666549,25.3786388 18.8151345,24.6321499 18.1430822,23.7346461 C17.2449139,22.5351718 17.0175958,21.1967699 17.5844979,19.7202176 C18.7745023,16.6207341 20.3960234,15.6781834 24.7193584,15.6784932 C27.1286418,15.6035011 28.6086201,15.580947 32.2749825,15.5457588 C40.6557515,15.4653239 42.4094731,15.1191277 44.8375293,12.6637039 C45.1830233,12.3143158 45.5341967,11.9164066 45.9000422,11.4603157 C50.0259246,6.31667657 48.6915984,2.57961316 42.0623447,2.14511171 C40.6217528,2.14511171 38.9236765,2.13958486 36.5315557,2.12824391 L36.5376241,0.848258296 C38.9278749,0.859590382 40.6242554,0.865111711 42.1040715,0.866473417 C49.8644826,1.3735169 51.6409628,6.34892625 46.8985146,12.2612233 C46.5061223,12.7504094 46.1258855,13.1812498 45.7476839,13.5637142 C44.2251,15.1034599 42.6673923,15.9291531 40.5265697,16.3517656 C38.7586157,16.7007713 37.0617421,16.7798766 32.2872668,16.8256999 C28.629883,16.8608019 27.1564004,16.883257 24.7392696,16.9581834 C20.8923166,16.9581834 19.7642992,17.6138724 18.7794519,20.1790039 C18.0461757,22.088894 19.0496408,23.4289889 21.9167105,25.2049042 C23.2952026,26.0059312 27.8617362,28.5490825 33.561846,31.7057195 C36.9700963,33.5931584 38.6444927,34.1946236 40.7898194,34.2191363 C41.9991749,34.2329545 43.7548052,34.2342361 46.7526941,34.2276649 C47.0497196,34.2270139 47.3344462,34.2263535 47.7859546,34.2252808 C49.8277595,34.22043 50.528181,34.2190945 51.3949779,34.2190945 C54.3627982,34.2190945 55.4398568,33.046112 54.9697368,28.8836439 C54.6906129,25.5108959 55.1490835,23.4738636 56.2281846,21.8136941 C56.3347932,21.6496795 56.4433904,21.4938291 56.580572,21.3049771 C56.5935094,21.2871667 56.8276346,20.9679238 56.8884833,20.8826377 C56.8337974,20.9592859 59.0659425,17.7649641 60.2307245,16.1261817 C62.3459874,13.1501265 64.4205756,10.3150917 66.4587178,7.64768081 C66.6798994,7.35821023 66.8996683,7.07203831 67.1179743,6.78926251 C69.9440169,3.12863734 73.2916728,2.87611766 77.801156,5.0205026 Z" id="Path" fill-opacity="0.2" fill="#000000" fill-rule="nonzero"></path>
                <g id="Group-6" transform="translate(99.413333, 42.240000)">
                    <rect id="Rectangle-2" fill="#000000" x="0" y="0" width="1" height="1"></rect>
                    <rect id="Rectangle-2-Copy-4" fill="#FFFFFF" x="0" y="0.64" width="1" height="1"></rect>
                    <rect id="Rectangle-2-Copy-7" fill="#000000" x="0" y="1.28" width="1" height="1"></rect>
                    <rect id="Rectangle-2-Copy" fill="#FFFFFF" x="0.64" y="0" width="1" height="1"></rect>
                    <rect id="Rectangle-2-Copy-5" fill="#000000" x="0.64" y="0.64" width="1" height="1"></rect>
                    <rect id="Rectangle-2-Copy-9" fill="#FFFFFF" x="0.64" y="1.28" width="1" height="1"></rect>
                    <rect id="Rectangle-2-Copy-3" fill="#000000" x="1.28" y="0" width="1" height="1"></rect>
                    <rect id="Rectangle-2-Copy-6" fill="#FFFFFF" x="1.28" y="0.64" width="1" height="1"></rect>
                    <rect id="Rectangle-2-Copy-10" fill="#000000" x="1.28" y="1.28" width="1" height="1"></rect>
                </g>
                <g id="Group-Copy-15" transform="translate(45.653333, 40.960000)">
                    <circle id="Oval-Copy-2" fill-opacity="0.7" fill="#FFFFFF" cx="2.56" cy="2.56" r="2.56"></circle>
                    <circle id="Oval-Copy-2" fill-opacity="0.2" fill="#D0021B" cx="2.56" cy="2.56" r="2.56"></circle>
                    <circle id="Oval" stroke="#D0021B" stroke-width="0.5" fill="#FFFFFF" cx="2.56" cy="2.56" r="1.70666667"></circle>
                    <circle id="Oval-Copy" fill="#D0021B" cx="2.56" cy="2.56" r="1"></circle>
                </g>
                <g id="Group-Copy-8" transform="translate(61.013333, 10.240000)">
                    <circle id="Oval-Copy-2" fill-opacity="0.7" fill="#FFFFFF" cx="2.56" cy="2.56" r="2.56"></circle>
                    <circle id="Oval-Copy-2" fill-opacity="0.2" fill="#FFB819" cx="2.56" cy="2.56" r="2.56"></circle>
                    <circle id="Oval" stroke="#FFB819" stroke-width="0.5" fill="#FFFFFF" cx="2.56" cy="2.56" r="1.70666667"></circle>
                    <circle id="Oval-Copy" fill="#FFB819" cx="2.56" cy="2.56" r="1"></circle>
                </g>
                <g id="Group-Copy-8" transform="translate(137.813333, 29.013333)">
                    <circle id="Oval-Copy-2" fill-opacity="0.7" fill="#FFFFFF" cx="2.56" cy="2.56" r="2.56"></circle>
                    <circle id="Oval-Copy-2" fill-opacity="0.2" fill="#FFB819" cx="2.56" cy="2.56" r="2.56"></circle>
                    <circle id="Oval" stroke="#FFB819" stroke-width="0.5" fill="#FFFFFF" cx="2.56" cy="2.56" r="1.70666667"></circle>
                    <circle id="Oval-Copy" fill="#FFB819" cx="2.56" cy="2.56" r="1"></circle>
                </g>
                <path d="M3.98794964,39.27125 L4.59628297,39.27125 C4.62544964,39.515 4.87128297,39.67125 5.22544964,39.67125 C5.55253297,39.67125 5.78378297,39.5129167 5.78378297,39.2858333 C5.78378297,39.0941667 5.63378297,38.98375 5.26503297,38.9045833 L4.87336631,38.82125 C4.32544964,38.7066667 4.05669964,38.42125 4.05669964,37.9629167 C4.05669964,37.39625 4.51294964,37.0233333 5.20669964,37.0233333 C5.86919964,37.0233333 6.33794964,37.3941667 6.35669964,37.9295833 L5.76503297,37.9295833 C5.73586631,37.6920833 5.51503297,37.53375 5.21086631,37.53375 C4.89628297,37.53375 4.68794964,37.6795833 4.68794964,37.90875 C4.68794964,38.0941667 4.83169964,38.2004167 5.18378297,38.2754167 L5.54628297,38.3525 C6.15044964,38.4795833 6.41086631,38.74 6.41086631,39.2066667 C6.41086631,39.8129167 5.94628297,40.18375 5.19211631,40.18375 C4.47544964,40.18375 4.01086631,39.8316667 3.98794964,39.27125 Z M7.67128297,40.1066667 L7.67128297,37.7129167 L7.63378297,37.7129167 L6.89628297,38.22125 L6.89628297,37.6358333 L7.67336631,37.1004167 L8.30044964,37.1004167 L8.30044964,40.1066667 L7.67128297,40.1066667 Z M2.90169964,42.8975 L2.77503297,42.8975 C2.63169964,42.7183333 2.55003297,42.4525 2.55003297,42.1666667 C2.55003297,41.8816667 2.61919964,41.675 2.78336631,41.465 L2.90419964,41.465 C2.78336631,41.6066667 2.69753297,41.8975 2.69753297,42.1666667 C2.69753297,42.4266667 2.76003297,42.6491667 2.90169964,42.8975 Z M3.10336631,42.3525 L3.25503297,42.3525 C3.27336631,42.4783333 3.39336631,42.5583333 3.56419964,42.5583333 C3.72586631,42.5583333 3.84503297,42.4708333 3.84503297,42.3516667 C3.84503297,42.2491667 3.77003297,42.1841667 3.60419964,42.1425 L3.45003297,42.1025 C3.23253297,42.0475 3.13836631,41.9491667 3.13836631,41.7783333 C3.13836631,41.5741667 3.30919964,41.4358333 3.56336631,41.4358333 C3.79586631,41.4358333 3.96919964,41.5741667 3.98169964,41.7683333 L3.83086631,41.7683333 C3.81003297,41.645 3.70836631,41.5716667 3.55836631,41.5716667 C3.39836631,41.5716667 3.29253297,41.6516667 3.29253297,41.7733333 C3.29253297,41.8675 3.35836631,41.9216667 3.52419964,41.9641667 L3.65003297,41.9975 C3.89919964,42.06 3.99919964,42.1566667 3.99919964,42.3333333 C3.99919964,42.5541667 3.82503297,42.695 3.55003297,42.695 C3.29503297,42.695 3.11919964,42.56 3.10336631,42.3525 Z M4.58836631,41.8791667 C4.44503297,41.8791667 4.34503297,41.9841667 4.33419964,42.1433333 L4.82919964,42.1433333 C4.82586631,41.9841667 4.73086631,41.8791667 4.58836631,41.8791667 Z M4.82503297,42.4341667 L4.96836631,42.4341667 C4.92503297,42.5883333 4.78669964,42.6825 4.59003297,42.6825 C4.34086631,42.6825 4.18503297,42.5025 4.18503297,42.2183333 C4.18503297,41.9358333 4.34336631,41.7525 4.59003297,41.7525 C4.83253297,41.7525 4.98003297,41.925 4.98003297,42.2041667 L4.98003297,42.2591667 L4.33419964,42.2591667 L4.33419964,42.2658333 C4.34169964,42.4433333 4.44086631,42.5558333 4.59336631,42.5558333 C4.70919964,42.5558333 4.78753297,42.5133333 4.82503297,42.4341667 Z M5.94836631,42.0433333 L5.80336631,42.0433333 C5.78003297,41.9541667 5.70086631,41.8816667 5.57169964,41.8816667 C5.41003297,41.8816667 5.30836631,42.0108333 5.30836631,42.2141667 C5.30836631,42.4216667 5.41169964,42.5533333 5.57169964,42.5533333 C5.69253297,42.5533333 5.77669964,42.4975 5.80336631,42.3958333 L5.94836631,42.3958333 C5.92253297,42.5608333 5.78836631,42.6825 5.57253297,42.6825 C5.32086631,42.6825 5.16003297,42.5 5.16003297,42.2141667 C5.16003297,41.9341667 5.32003297,41.7525 5.57169964,41.7525 C5.79003297,41.7525 5.92336631,41.8833333 5.94836631,42.0433333 Z M6.22003297,41.5358333 L6.36336631,41.5358333 L6.36336631,41.7683333 L6.56336631,41.7683333 L6.56336631,41.8883333 L6.36336631,41.8883333 L6.36336631,42.3966667 C6.36336631,42.5025 6.40336631,42.5475 6.49669964,42.5475 C6.52253297,42.5475 6.53669964,42.5466667 6.56336631,42.5441667 L6.56336631,42.665 C6.53503297,42.67 6.50753297,42.6733333 6.47919964,42.6733333 C6.29419964,42.6733333 6.22003297,42.605 6.22003297,42.4333333 L6.22003297,41.8883333 L6.07503297,41.8883333 L6.07503297,41.7683333 L6.22003297,41.7683333 L6.22003297,41.5358333 Z M7.14919964,42.5533333 C7.31919964,42.5533333 7.41503297,42.43 7.41503297,42.2175 C7.41503297,42.0041667 7.31919964,41.8816667 7.14919964,41.8816667 C6.97919964,41.8816667 6.88336631,42.0041667 6.88336631,42.2175 C6.88336631,42.43 6.97919964,42.5533333 7.14919964,42.5533333 Z M7.14919964,42.6825 C6.89336631,42.6825 6.73503297,42.5058333 6.73503297,42.2175 C6.73503297,41.9283333 6.89336631,41.7525 7.14919964,41.7525 C7.40503297,41.7525 7.56336631,41.9283333 7.56336631,42.2175 C7.56336631,42.5058333 7.40503297,42.6825 7.14919964,42.6825 Z M7.78836631,42.6666667 L7.78836631,41.7683333 L7.92503297,41.7683333 L7.92503297,41.9016667 L7.93836631,41.9016667 C7.96503297,41.8141667 8.06836631,41.7525 8.18753297,41.7525 C8.21086631,41.7525 8.24086631,41.7541667 8.25919964,41.7566667 L8.25919964,41.9 C8.24753297,41.8966667 8.19586631,41.8916667 8.16753297,41.8916667 C8.03086631,41.8916667 7.93169964,41.9833333 7.93169964,42.11 L7.93169964,42.6666667 L7.78836631,42.6666667 Z M9.20669964,42.6666667 L9.20669964,41.6308333 L9.19336631,41.6308333 L8.88753297,41.8525 L8.88753297,41.6941667 L9.20753297,41.4641667 L9.35669964,41.4641667 L9.35669964,42.6666667 L9.20669964,42.6666667 Z M9.68586631,42.8975 C9.82753297,42.6491667 9.89003297,42.4266667 9.89003297,42.1666667 C9.89003297,41.8958333 9.80503297,41.6058333 9.68419964,41.465 L9.80586631,41.465 C9.97003297,41.675 10.0383663,41.8816667 10.0383663,42.1666667 C10.0383663,42.4508333 9.95669964,42.7166667 9.81336631,42.8975 L9.68586631,42.8975 Z" id="S1-(Sector-1)-Copy" fill="#C6C6C6"></path>
                <path d="M42.963158,24.3379167 L43.5714913,24.3379167 C43.600658,24.5816667 43.8464913,24.7379167 44.200658,24.7379167 C44.5277413,24.7379167 44.7589913,24.5795833 44.7589913,24.3525 C44.7589913,24.1608333 44.6089913,24.0504167 44.2402413,23.97125 L43.8485746,23.8879167 C43.300658,23.7733333 43.031908,23.4879167 43.031908,23.0295833 C43.031908,22.4629167 43.488158,22.09 44.181908,22.09 C44.844408,22.09 45.313158,22.4608333 45.331908,22.99625 L44.7402413,22.99625 C44.7110746,22.75875 44.4902413,22.6004167 44.1860746,22.6004167 C43.8714913,22.6004167 43.663158,22.74625 43.663158,22.9754167 C43.663158,23.1608333 43.806908,23.2670833 44.1589913,23.3420833 L44.5214913,23.4191667 C45.125658,23.54625 45.3860746,23.8066667 45.3860746,24.2733333 C45.3860746,24.8795833 44.9214913,25.2504167 44.1673246,25.2504167 C43.450658,25.2504167 42.9860746,24.8983333 42.963158,24.3379167 Z M45.8839913,23.0670833 C45.8839913,22.4858333 46.3298246,22.09 46.9798246,22.09 C47.606908,22.09 48.044408,22.4504167 48.044408,22.9670833 C48.044408,23.2941667 47.8673246,23.5754167 47.3464913,24.065 L46.7714913,24.6129167 L46.7714913,24.6504167 L48.088158,24.6504167 L48.088158,25.1733333 L45.919408,25.1733333 L45.919408,24.73375 L46.900658,23.7733333 C47.3235746,23.3608333 47.4298246,23.2045833 47.4298246,23.00875 C47.4298246,22.7670833 47.2339913,22.59625 46.9589913,22.59625 C46.6673246,22.59625 46.4673246,22.7879167 46.4673246,23.065 L46.4673246,23.0775 L45.8839913,23.0775 L45.8839913,23.0670833 Z M42.037533,27.9641667 L41.9108663,27.9641667 C41.767533,27.785 41.6858663,27.5191667 41.6858663,27.2333333 C41.6858663,26.9483333 41.755033,26.7416667 41.9191996,26.5316667 L42.040033,26.5316667 C41.9191996,26.6733333 41.8333663,26.9641667 41.8333663,27.2333333 C41.8333663,27.4933333 41.8958663,27.7158333 42.037533,27.9641667 Z M42.2391996,27.4191667 L42.3908663,27.4191667 C42.4091996,27.545 42.5291996,27.625 42.700033,27.625 C42.8616996,27.625 42.9808663,27.5375 42.9808663,27.4183333 C42.9808663,27.3158333 42.9058663,27.2508333 42.740033,27.2091667 L42.5858663,27.1691667 C42.3683663,27.1141667 42.2741996,27.0158333 42.2741996,26.845 C42.2741996,26.6408333 42.445033,26.5025 42.6991996,26.5025 C42.9316996,26.5025 43.105033,26.6408333 43.117533,26.835 L42.9666996,26.835 C42.9458663,26.7116667 42.8441996,26.6383333 42.6941996,26.6383333 C42.5341996,26.6383333 42.4283663,26.7183333 42.4283663,26.84 C42.4283663,26.9341667 42.4941996,26.9883333 42.660033,27.0308333 L42.7858663,27.0641667 C43.035033,27.1266667 43.135033,27.2233333 43.135033,27.4 C43.135033,27.6208333 42.9608663,27.7616667 42.6858663,27.7616667 C42.4308663,27.7616667 42.255033,27.6266667 42.2391996,27.4191667 Z M43.7241996,26.9458333 C43.5808663,26.9458333 43.4808663,27.0508333 43.470033,27.21 L43.965033,27.21 C43.9616996,27.0508333 43.8666996,26.9458333 43.7241996,26.9458333 Z M43.9608663,27.5008333 L44.1041996,27.5008333 C44.0608663,27.655 43.922533,27.7491667 43.7258663,27.7491667 C43.4766996,27.7491667 43.3208663,27.5691667 43.3208663,27.285 C43.3208663,27.0025 43.4791996,26.8191667 43.7258663,26.8191667 C43.9683663,26.8191667 44.1158663,26.9916667 44.1158663,27.2708333 L44.1158663,27.3258333 L43.470033,27.3258333 L43.470033,27.3325 C43.477533,27.51 43.5766996,27.6225 43.7291996,27.6225 C43.845033,27.6225 43.9233663,27.58 43.9608663,27.5008333 Z M45.0841996,27.11 L44.9391996,27.11 C44.9158663,27.0208333 44.8366996,26.9483333 44.707533,26.9483333 C44.5458663,26.9483333 44.4441996,27.0775 44.4441996,27.2808333 C44.4441996,27.4883333 44.547533,27.62 44.707533,27.62 C44.8283663,27.62 44.912533,27.5641667 44.9391996,27.4625 L45.0841996,27.4625 C45.0583663,27.6275 44.9241996,27.7491667 44.7083663,27.7491667 C44.4566996,27.7491667 44.2958663,27.5666667 44.2958663,27.2808333 C44.2958663,27.0008333 44.4558663,26.8191667 44.707533,26.8191667 C44.9258663,26.8191667 45.0591996,26.95 45.0841996,27.11 Z M45.3558663,26.6025 L45.4991996,26.6025 L45.4991996,26.835 L45.6991996,26.835 L45.6991996,26.955 L45.4991996,26.955 L45.4991996,27.4633333 C45.4991996,27.5691667 45.5391996,27.6141667 45.632533,27.6141667 C45.6583663,27.6141667 45.672533,27.6133333 45.6991996,27.6108333 L45.6991996,27.7316667 C45.6708663,27.7366667 45.6433663,27.74 45.615033,27.74 C45.430033,27.74 45.3558663,27.6716667 45.3558663,27.5 L45.3558663,26.955 L45.2108663,26.955 L45.2108663,26.835 L45.3558663,26.835 L45.3558663,26.6025 Z M46.285033,27.62 C46.455033,27.62 46.5508663,27.4966667 46.5508663,27.2841667 C46.5508663,27.0708333 46.455033,26.9483333 46.285033,26.9483333 C46.115033,26.9483333 46.0191996,27.0708333 46.0191996,27.2841667 C46.0191996,27.4966667 46.115033,27.62 46.285033,27.62 Z M46.285033,27.7491667 C46.0291996,27.7491667 45.8708663,27.5725 45.8708663,27.2841667 C45.8708663,26.995 46.0291996,26.8191667 46.285033,26.8191667 C46.5408663,26.8191667 46.6991996,26.995 46.6991996,27.2841667 C46.6991996,27.5725 46.5408663,27.7491667 46.285033,27.7491667 Z M46.9241996,27.7333333 L46.9241996,26.835 L47.0608663,26.835 L47.0608663,26.9683333 L47.0741996,26.9683333 C47.1008663,26.8808333 47.2041996,26.8191667 47.3233663,26.8191667 C47.3466996,26.8191667 47.3766996,26.8208333 47.395033,26.8233333 L47.395033,26.9666667 C47.3833663,26.9633333 47.3316996,26.9583333 47.3033663,26.9583333 C47.1666996,26.9583333 47.067533,27.05 47.067533,27.1766667 L47.067533,27.7333333 L46.9241996,27.7333333 Z M48.047533,26.8691667 C48.047533,26.6558333 48.2091996,26.5025 48.432533,26.5025 C48.6483663,26.5025 48.8133663,26.6491667 48.8133663,26.84 C48.8133663,26.965 48.7566996,27.0625 48.5591996,27.2741667 L48.270033,27.585 L48.270033,27.5983333 L48.8333663,27.5983333 L48.8333663,27.7333333 L48.055033,27.7333333 L48.055033,27.63 L48.4708663,27.1758333 C48.6258663,27.0075 48.6633663,26.9425 48.6633663,26.8458333 C48.6633663,26.7258333 48.5608663,26.6333333 48.4283663,26.6333333 C48.287533,26.6333333 48.192533,26.7275 48.192533,26.8691667 L48.192533,26.87 L48.047533,26.87 L48.047533,26.8691667 Z M49.0566996,27.9641667 C49.1983663,27.7158333 49.2608663,27.4933333 49.2608663,27.2333333 C49.2608663,26.9625 49.1758663,26.6725 49.055033,26.5316667 L49.1766996,26.5316667 C49.3408663,26.7416667 49.4091996,26.9483333 49.4091996,27.2333333 C49.4091996,27.5175 49.327533,27.7833333 49.1841996,27.9641667 L49.0566996,27.9641667 Z" id="S2-(Sector-2)-Copy" fill="#999999"></path>
                <path d="M140.188991,14.5245833 L140.797325,14.5245833 C140.826491,14.7683333 141.072325,14.9245833 141.426491,14.9245833 C141.753575,14.9245833 141.984825,14.76625 141.984825,14.5391667 C141.984825,14.3475 141.834825,14.2370833 141.466075,14.1579167 L141.074408,14.0745833 C140.526491,13.96 140.257741,13.6745833 140.257741,13.21625 C140.257741,12.6495833 140.713991,12.2766667 141.407741,12.2766667 C142.070241,12.2766667 142.538991,12.6475 142.557741,13.1829167 L141.966075,13.1829167 C141.936908,12.9454167 141.716075,12.7870833 141.411908,12.7870833 C141.097325,12.7870833 140.888991,12.9329167 140.888991,13.1620833 C140.888991,13.3475 141.032741,13.45375 141.384825,13.52875 L141.747325,13.6058333 C142.351491,13.7329167 142.611908,13.9933333 142.611908,14.46 C142.611908,15.06625 142.147325,15.4370833 141.393158,15.4370833 C140.676491,15.4370833 140.211908,15.085 140.188991,14.5245833 Z M143.878575,14.0558333 L143.878575,13.5870833 L144.245241,13.5870833 C144.530658,13.5870833 144.724408,13.4204167 144.724408,13.1745833 C144.724408,12.9329167 144.536908,12.77875 144.243158,12.77875 C143.951491,12.77875 143.757741,12.9433333 143.741075,13.20375 L143.159825,13.20375 C143.180658,12.635 143.603575,12.2766667 144.259825,12.2766667 C144.876491,12.2766667 145.320241,12.6141667 145.320241,13.0870833 C145.320241,13.435 145.101491,13.7058333 144.766075,13.7745833 L144.766075,13.8120833 C145.178575,13.8579167 145.436908,14.1329167 145.436908,14.52875 C145.436908,15.0558333 144.941075,15.4370833 144.255658,15.4370833 C143.584825,15.4370833 143.130658,15.06625 143.103575,14.4995833 L143.705658,14.4995833 C143.724408,14.75375 143.938991,14.9141667 144.261908,14.9141667 C144.576491,14.9141667 144.795241,14.7370833 144.795241,14.4808333 C144.795241,14.2183333 144.588991,14.0558333 144.251491,14.0558333 L143.878575,14.0558333 Z M139.29795,18.1508333 L139.171283,18.1508333 C139.02795,17.9716667 138.946283,17.7058333 138.946283,17.42 C138.946283,17.135 139.01545,16.9283333 139.179616,16.7183333 L139.30045,16.7183333 C139.179616,16.86 139.093783,17.1508333 139.093783,17.42 C139.093783,17.68 139.156283,17.9025 139.29795,18.1508333 Z M139.499616,17.6058333 L139.651283,17.6058333 C139.669616,17.7316667 139.789616,17.8116667 139.96045,17.8116667 C140.122116,17.8116667 140.241283,17.7241667 140.241283,17.605 C140.241283,17.5025 140.166283,17.4375 140.00045,17.3958333 L139.846283,17.3558333 C139.628783,17.3008333 139.534616,17.2025 139.534616,17.0316667 C139.534616,16.8275 139.70545,16.6891667 139.959616,16.6891667 C140.192116,16.6891667 140.36545,16.8275 140.37795,17.0216667 L140.227116,17.0216667 C140.206283,16.8983333 140.104616,16.825 139.954616,16.825 C139.794616,16.825 139.688783,16.905 139.688783,17.0266667 C139.688783,17.1208333 139.754616,17.175 139.92045,17.2175 L140.046283,17.2508333 C140.29545,17.3133333 140.39545,17.41 140.39545,17.5866667 C140.39545,17.8075 140.221283,17.9483333 139.946283,17.9483333 C139.691283,17.9483333 139.51545,17.8133333 139.499616,17.6058333 Z M140.984616,17.1325 C140.841283,17.1325 140.741283,17.2375 140.73045,17.3966667 L141.22545,17.3966667 C141.222116,17.2375 141.127116,17.1325 140.984616,17.1325 Z M141.221283,17.6875 L141.364616,17.6875 C141.321283,17.8416667 141.18295,17.9358333 140.986283,17.9358333 C140.737116,17.9358333 140.581283,17.7558333 140.581283,17.4716667 C140.581283,17.1891667 140.739616,17.0058333 140.986283,17.0058333 C141.228783,17.0058333 141.376283,17.1783333 141.376283,17.4575 L141.376283,17.5125 L140.73045,17.5125 L140.73045,17.5191667 C140.73795,17.6966667 140.837116,17.8091667 140.989616,17.8091667 C141.10545,17.8091667 141.183783,17.7666667 141.221283,17.6875 Z M142.344616,17.2966667 L142.199616,17.2966667 C142.176283,17.2075 142.097116,17.135 141.96795,17.135 C141.806283,17.135 141.704616,17.2641667 141.704616,17.4675 C141.704616,17.675 141.80795,17.8066667 141.96795,17.8066667 C142.088783,17.8066667 142.17295,17.7508333 142.199616,17.6491667 L142.344616,17.6491667 C142.318783,17.8141667 142.184616,17.9358333 141.968783,17.9358333 C141.717116,17.9358333 141.556283,17.7533333 141.556283,17.4675 C141.556283,17.1875 141.716283,17.0058333 141.96795,17.0058333 C142.186283,17.0058333 142.319616,17.1366667 142.344616,17.2966667 Z M142.616283,16.7891667 L142.759616,16.7891667 L142.759616,17.0216667 L142.959616,17.0216667 L142.959616,17.1416667 L142.759616,17.1416667 L142.759616,17.65 C142.759616,17.7558333 142.799616,17.8008333 142.89295,17.8008333 C142.918783,17.8008333 142.93295,17.8 142.959616,17.7975 L142.959616,17.9183333 C142.931283,17.9233333 142.903783,17.9266667 142.87545,17.9266667 C142.69045,17.9266667 142.616283,17.8583333 142.616283,17.6866667 L142.616283,17.1416667 L142.471283,17.1416667 L142.471283,17.0216667 L142.616283,17.0216667 L142.616283,16.7891667 Z M143.54545,17.8066667 C143.71545,17.8066667 143.811283,17.6833333 143.811283,17.4708333 C143.811283,17.2575 143.71545,17.135 143.54545,17.135 C143.37545,17.135 143.279616,17.2575 143.279616,17.4708333 C143.279616,17.6833333 143.37545,17.8066667 143.54545,17.8066667 Z M143.54545,17.9358333 C143.289616,17.9358333 143.131283,17.7591667 143.131283,17.4708333 C143.131283,17.1816667 143.289616,17.0058333 143.54545,17.0058333 C143.801283,17.0058333 143.959616,17.1816667 143.959616,17.4708333 C143.959616,17.7591667 143.801283,17.9358333 143.54545,17.9358333 Z M144.184616,17.92 L144.184616,17.0216667 L144.321283,17.0216667 L144.321283,17.155 L144.334616,17.155 C144.361283,17.0675 144.464616,17.0058333 144.583783,17.0058333 C144.607116,17.0058333 144.637116,17.0075 144.65545,17.01 L144.65545,17.1533333 C144.643783,17.15 144.592116,17.145 144.563783,17.145 C144.427116,17.145 144.32795,17.2366667 144.32795,17.3633333 L144.32795,17.92 L144.184616,17.92 Z M145.561283,17.3658333 L145.561283,17.2375 L145.707116,17.2375 C145.843783,17.2375 145.94045,17.1491667 145.94045,17.0241667 C145.94045,16.9016667 145.84795,16.82 145.709616,16.82 C145.571283,16.82 145.48045,16.8966667 145.46795,17.0258333 L145.322116,17.0258333 C145.337116,16.8175 145.486283,16.6891667 145.71545,16.6891667 C145.92545,16.6891667 146.09295,16.8291667 146.09295,17.0041667 C146.09295,17.1475 146.013783,17.2525 145.882116,17.2841667 L145.882116,17.2975 C146.04545,17.3183333 146.144616,17.4316667 146.144616,17.5958333 C146.144616,17.7941667 145.958783,17.9483333 145.721283,17.9483333 C145.477116,17.9483333 145.308783,17.8125 145.29795,17.6066667 L145.44295,17.6066667 C145.456283,17.735 145.564616,17.8175 145.719616,17.8175 C145.87795,17.8175 145.99045,17.7233333 145.99045,17.5916667 C145.99045,17.4525 145.884616,17.3658333 145.713783,17.3658333 L145.561283,17.3658333 Z M146.356283,18.1508333 C146.49795,17.9025 146.56045,17.68 146.56045,17.42 C146.56045,17.1491667 146.47545,16.8591667 146.354616,16.7183333 L146.476283,16.7183333 C146.64045,16.9283333 146.708783,17.135 146.708783,17.42 C146.708783,17.7041667 146.627116,17.97 146.483783,18.1508333 L146.356283,18.1508333 Z" id="S3-(Sector-3)-Copy" fill="#666666"></path>
            </g>
        </g>
    </g>
</svg>